<?xml version="1.0" standalone="no"?>
<!DOCTYPE svg PUBLIC "-//W3C//DTD SVG 1.1//EN" "http://www.w3.org/Graphics/SVG/1.1/DTD/svg11.dtd" >
<!--
2013-9-30: Created.
-->
<svg>
<metadata>
Created by iconfont
</metadata>
<defs>

<font id="basicfont" horiz-adv-x="1024" >
  <font-face
    font-family="basicfont"
    font-weight="500"
    font-stretch="normal"
    units-per-em="1024"
    ascent="896"
    descent="-128"
  />
    <missing-glyph />
    
    <glyph glyph-name="circle-plus-outline" unicode="&#58947;" d="M352 416h320q14.016 0 23.008-8.992T704 384t-8.992-23.008T672 352H352q-14.016 0-23.008 8.992T320 384t8.992 23.008T352 416z m128-192V544q0 14.016 8.992 23.008T512 576t23.008-8.992T544 544v-320q0-14.016-8.992-23.008T512 192t-23.008 8.992T480 224z m32-224q163.008 4 271.488 112.512T896 384q-4 163.008-112.512 271.488T512 768q-163.008-4-271.488-112.512T128 384q4-163.008 112.512-271.488T512 0z m0-64q-190.016 4.992-316.512 131.488T64 384q4.992 190.016 131.488 316.512T512 832q190.016-4.992 316.512-131.488T960 384q-4.992-190.016-131.488-316.512T512-64z"  horiz-adv-x="1024" />

    
    <glyph glyph-name="remove-outline" unicode="&#58985;" d="M352 416h320q14.016 0 23.008-8.992T704 384t-8.992-23.008T672 352H352q-14.016 0-23.008 8.992T320 384t8.992 23.008T352 416z m160-416q163.008 4 271.488 112.512T896 384q-4 163.008-112.512 271.488T512 768q-163.008-4-271.488-112.512T128 384q4-163.008 112.512-271.488T512 0z m0-64q-190.016 4.992-316.512 131.488T64 384q4.992 190.016 131.488 316.512T512 832q190.016-4.992 316.512-131.488T960 384q-4.992-190.016-131.488-316.512T512-64z"  horiz-adv-x="1024" />

    
    <glyph glyph-name="icon_compile" unicode="&#60307;" d="M256.011768 224.008122h159.991878c17.672498 0 31.998785-14.326287 31.998784-31.998784s-14.326287-31.998785-31.998784-31.998785H256.011768c-17.672498 0-31.998785 14.326287-31.998785 31.998785 0.001023 17.672498 14.32731 31.998785 31.998785 31.998784zM950.545034 777.379369L679.029154 505.863489c-12.496615-12.496615-32.756031-12.496615-45.252646 0-12.495592 12.495592-12.495592 32.756031 0 45.252646L905.292388 822.632015c12.496615 12.496615 32.756031 12.496615 45.252646 0 12.496615-12.496615 12.496615-32.757055 0-45.252646zM256.011768 416.024367h415.98011c17.672498 0 31.998785-14.326287 31.998784-31.998784s-14.326287-31.998785-31.998784-31.998785H256.011768c-17.672498 0-31.998785 14.326287-31.998785 31.998785 0.001023 17.671475 14.32731 31.998785 31.998785 31.998784z m0 191.990663h223.989447c17.672498 0 31.998785-14.326287 31.998785-31.998785s-14.326287-31.998785-31.998785-31.998785H256.011768c-17.672498 0-31.998785 14.326287-31.998785 31.998785 0.001023 17.672498 14.32731 31.998785 31.998785 31.998785z m639.969557-160.01746c0 17.672498 14.326287 31.998785 31.998784 31.998784s31.998785-14.326287 31.998785-31.998784v-415.98011c0-53.016471-42.97886-95.995331-95.995331-95.995331H160.016437c-53.016471 0-95.995331 42.97886-95.995331 95.995331V735.983563c0 53.016471 42.97886 95.995331 95.995331 95.995331h415.980109c17.672498 0 31.998785-14.326287 31.998785-31.998785s-14.326287-31.998785-31.998785-31.998784H160.016437c-17.672498 0-31.998785-14.326287-31.998785-31.998785v-703.966103c0-17.672498 14.326287-31.998785 31.998785-31.998785h703.966103c17.672498 0 31.998785 14.326287 31.998785 31.998785V447.99757z"  horiz-adv-x="1024" />

    
    <glyph glyph-name="sousuo" unicode="&#59288;" d="M638.498133 222.993067a284.5696 284.5696 0 1 0 34.474667 34.474666l173.226667-173.1584a24.405333 24.405333 0 1 0-34.5088-34.474666l-173.192534 173.1584z m-183.261866-18.056534a235.793067 235.793067 0 1 1 0 471.620267 235.793067 235.793067 0 0 1 0-471.620267z"  horiz-adv-x="1024" />

    
    <glyph glyph-name="icon_setting" unicode="&#60317;" d="M513.796926-63.977871c-5.249561 0-10.530844 0.077771-15.780405 0.26606a455.752951 455.752951 0 0 0-33.561374 2.422165c-15.249309 1.672082-27.154453 13.890358-28.404933 29.139668-1.812275 21.686928-10.624988 41.575908-25.498744 57.497528-35.311227 37.904285-93.745081 41.091884-132.868123 7.233752-11.562337-9.999748-28.592198-10.406001-40.716331-0.952698-26.936489 21.171182-51.497884 45.51359-72.996524 72.324212-9.561773 11.952216-9.342786 28.998451 0.531096 40.685631 14.062274 16.60826 21.904892 36.872792 22.654976 58.637492 1.781576 51.825342-37.248346 95.354741-88.871074 99.088786-15.280008 1.109264-27.65485 12.921287-29.467125 28.138874a451.200262 451.200262 0 0 0-2.874467 69.105914c0.406253 11.343349 1.187035 22.530133 2.405793 33.592072 1.655709 15.249309 13.905708 27.154453 29.185716 28.420283 21.655206 1.781576 41.498136 10.593266 57.435107 25.468045 37.936007 35.341926 41.091884 93.714382 7.250124 132.899846-9.999748 11.593036-10.406001 28.670993-0.937348 40.71633 21.248953 26.967188 45.560662 51.528584 72.340585 72.964802 11.906168 9.593496 28.967752 9.343809 40.685631-0.546445 16.59291-14.045901 36.872792-21.874193 58.653865-22.639627 52.841485-2.437515 95.339392 37.263695 99.088786 88.901773 1.093914 15.280008 12.905938 27.624151 28.123524 29.451776a452.740338 452.740338 0 0 0 69.121264 2.859117 458.812637 458.812637 0 0 0 33.561373-2.405793c15.249309-1.655709 27.154453-13.905708 28.435633-29.185716 1.781576-21.670555 10.561543-41.545208 25.436322-57.465806 35.311227-37.904285 93.745081-41.076534 132.931568-7.218402 11.562337 9.999748 28.686343 10.406001 40.685631 0.921999 26.967188-21.201881 51.497884-45.528939 72.964802-72.308863 9.593496-11.952216 9.342786-29.013801-0.562818-40.70098-14.030551-16.57756-21.874193-36.842093-22.624277-58.622143-1.781576-51.809993 37.248346-95.339392 88.901773-99.088785 15.311731-1.124614 27.65485-12.921287 29.467125-28.138874 2.687202-22.654976 3.656273-45.904493 2.843768-69.090565-0.406253-11.343349-1.187035-22.545482-2.405793-33.607422-1.655709-15.217586-13.905708-27.139104-29.155017-28.404933-21.655206-1.796926-41.560558-10.608615-57.497529-25.468045-37.904285-35.341926-41.060161-93.729731-7.218401-132.899846 9.999748-11.593036 10.406001-28.65462 0.937348-40.700981-21.217231-26.951839-45.528939-51.513234-72.340585-72.981175-11.968589-9.578146-28.998451-9.342786-40.685631 0.562819-16.562211 14.030551-36.810371 21.842471-58.622142 22.607904-52.934606 2.28095-95.339392-37.248346-99.088786-88.886423-1.093914-15.280008-12.905938-27.6395-28.123524-29.451776a452.746478 452.746478 0 0 0-53.340859-3.14155z m-18.624173 64.433498c1.687432-0.077771 3.374864-0.156566 5.062296-0.202615a397.114436 397.114436 0 0 1 35.560913 0.374531c17.936511 72.136947 83.277682 123.30635 160.804383 120.838135 26.498514-0.937348 52.40351-8.514931 75.120908-21.764699a381.427152 381.427152 0 0 1 28.65462 28.888957c-38.34226 63.669088-28.030403 146.633638 28.28009 199.131293 19.374256 18.077727 43.060725 31.029714 68.527746 37.732369 0.062422 1.719154 0.156566 3.452635 0.218988 5.17179a395.750369 395.750369 0 0 1-0.37453 35.513842c-72.152297 17.905812-123.525338 83.871199-120.838136 160.789033 0.906649 26.498514 8.499581 52.41886 21.74935 75.15263a387.007241 387.007241 0 0 1-28.873608 28.639271c-63.684438-38.325887-146.618289-28.01403-199.146642 28.26474-18.374486 19.701714-31.18628 43.044352-37.811164 68.543096-1.687432 0.077771-3.343141 0.156566-5.030573 0.202615-11.842723 0.390903-23.780613 0.312108-35.560914-0.37453-17.905812-72.152297-82.777285-123.213229-160.804383-120.838136-26.936489 0.952698-52.497655 8.390088-75.215052 21.732977a392.163681 392.163681 0 0 1-28.592198-28.841885c38.34226-63.684438 28.030403-146.648988-28.280091-199.131293-19.374256-18.077727-43.060725-31.045063-68.527746-37.747719-0.062422-1.719154-0.156566-3.437286-0.218987-5.15644-0.406253-11.812023-0.249687-23.701818 0.406252-35.513842 72.121598-17.905812 123.493615-83.871199 120.806414-160.804383-0.906649-26.920116-8.343015-52.497655-21.717628-75.215052a389.053853 389.053853 0 0 1 28.841885-28.576849c63.71616 38.404682 146.618289 28.01403 199.146643-28.26474 18.374486-19.701714 31.18628-43.027979 37.811164-68.543096z m18.467607 191.553711c-105.870236 0-191.990662 86.120426-191.990662 191.990662s86.120426 191.990662 191.990662 191.990662 191.990662-86.120426 191.990662-191.990662-86.120426-191.990662-191.990662-191.990662z m0 319.984778c-70.590731 0-127.994116-57.418734-127.994116-127.994116s57.403385-127.994116 127.994116-127.994116 127.994116 57.418734 127.994116 127.994116-57.403385 127.994116-127.994116 127.994116z"  horiz-adv-x="1024" />

    
    <glyph glyph-name="bukejian" unicode="&#59278;" d="M804.522667 362.052267l40.516266-80.213334a26.965333 26.965333 0 1 0-48.128-24.302933l-40.6528 80.554667c-24.1664-10.8544-48.3328-19.968-72.533333-27.3408l14.5408-66.730667a26.965333 26.965333 0 0 0-52.6336-11.4688l-14.199467 64.955733c-25.088-5.085867-50.244267-8.260267-75.434666-9.6256v-76.3904a26.965333 26.965333 0 0 0-53.896534 0v76.3904a520.533333 520.533333 0 0 0-74.990933 9.557334l-15.2576-65.1264a26.965333 26.965333 0 1 0-52.462933 12.288l15.4624 66.013866a614.877867 614.877867 0 0 0-72.977067 27.477334l-40.686933-80.554667a26.965333 26.965333 0 1 0-48.128 24.302933l40.5504 80.213334c-17.92 9.796267-35.805867 20.48-53.6576 32.187733a26.965333 26.965333 0 0 0 29.457066 45.124267c100.590933-65.706667 200.362667-98.304 299.656534-98.304s199.031467 32.597333 299.656533 98.304a26.965333 26.965333 0 0 0 29.457067-45.124267c-17.851733-11.6736-35.771733-22.391467-53.6576-32.187733z"  horiz-adv-x="1024" />

    
    <glyph glyph-name="kejian" unicode="&#59280;" d="M512.648533 145.066667c-146.090667 0-277.538133 86.2208-338.5344 222.3104-3.8912 11.639467-3.8912 21.6064 0.9216 35.6352C235.1104 536.712533 366.592 622.933333 512.6144 622.933333c146.090667 0 277.572267-86.2208 338.5344-222.3104 3.8912-11.639467 3.8912-21.6064-0.9216-35.6352C790.186667 231.287467 658.705067 145.066667 512.682667 145.066667zM221.866667 385.911467c51.882667-115.4048 165.0688-189.6448 290.781866-189.6448s238.933333 74.24 289.860267 187.2896c0.341333 1.1264 0.341333-0.170667 0.853333-1.365334l0.034134-0.1024C751.547733 497.493333 638.327467 571.733333 512.682667 571.733333c-125.713067 0-238.933333-74.24-289.860267-187.2896-0.375467-1.1264-0.375467 0.170667-0.887467 1.365334v0.1024z m290.781866-134.178134A131.345067 131.345067 0 0 0 380.1088 384a131.345067 131.345067 0 0 0 132.539733 132.266667A131.345067 131.345067 0 0 0 645.12 384a131.345067 131.345067 0 0 0-132.5056-132.266667z m0 51.2c45.6704 0 81.237333 35.498667 81.237334 81.066667a80.110933 80.110933 0 0 1-81.237334 81.066667A80.110933 80.110933 0 0 1 431.4112 384a80.110933 80.110933 0 0 1 81.237333-81.066667z"  horiz-adv-x="1024" />

    
    <glyph glyph-name="shanchu" unicode="&#59290;" d="M345.7024 637.815467V699.050667a26.282667 26.282667 0 0 0 26.282667 26.248533h280.064a26.282667 26.282667 0 0 0 26.248533-26.282667v-61.2352h148.7872a26.282667 26.282667 0 1 0 0-52.5312H196.9152a26.282667 26.282667 0 1 0 0 52.5312h148.821333z m52.5312 0h227.5328V672.836267h-227.5328v-35.0208z m297.5744-542.651734V489.028267a26.282667 26.282667 0 0 0 52.497067 0v-420.113067a26.282667 26.282667 0 0 0-26.282667-26.248533H301.9776a26.282667 26.282667 0 0 0-26.282667 26.282666V488.994133a26.282667 26.282667 0 0 0 52.565334 0v-393.864533h367.581866z m-280.098133 358.843734a26.282667 26.282667 0 1 0 52.5312 0v-280.064a26.282667 26.282667 0 0 0-52.5312 0v280.064z m140.049066 0a26.282667 26.282667 0 0 0 52.5312 0v-280.064a26.282667 26.282667 0 1 0-52.5312 0v280.064z"  horiz-adv-x="1024" />

    
    <glyph glyph-name="tianjia" unicode="&#59292;" d="M485.717333 410.282667V699.050667a26.282667 26.282667 0 0 0 52.565334 0v-288.768h288.768a26.282667 26.282667 0 1 0 0-52.565334h-288.768v-288.768a26.282667 26.282667 0 1 0-52.565334 0v288.768H196.949333a26.282667 26.282667 0 0 0 0 52.565334h288.768z"  horiz-adv-x="1024" />

    
    <glyph glyph-name="uploadReport1" unicode="&#58946;" d="M400 578.304h73.92v-338.304c0-4.416 3.584-8 8-8h59.968a8 8 0 0 1 8 8V578.304H624c6.72 0 10.368 7.68 6.272 12.928l-112 141.76a8 8 0 0 1-12.544 0L393.728 591.36a8.064 8.064 0 0 1 6.272-12.992z m478.016-308.288h-60.032a8 8 0 0 1-8-8v-153.984H214.016V262.016a8 8 0 0 1-8 8H145.92a8 8 0 0 1-8-8V64a32 32 0 0 1 32-32h684.032a32 32 0 0 1 32 32V262.016a8 8 0 0 1-8 8z"  horiz-adv-x="1024" />

    
    <glyph glyph-name="download" unicode="&#58938;" d="M495.68 235.008c3.2-4.096 9.408-4.096 12.608 0l112 141.696a8 8 0 0 1-6.272 12.928H539.904V728A8 8 0 0 1 531.84 736h-60.032a8 8 0 0 1-8-8v-338.304H390.016a8 8 0 0 1-6.336-12.864l112-141.824zM868.032 270.016h-60.032a8 8 0 0 1-8-8v-153.984H203.968V262.016a8 8 0 0 1-7.936 8h-60.032A8 8 0 0 1 128 262.016V64a32 32 0 0 1 32-32h684.032a32 32 0 0 1 32 32V262.016a8 8 0 0 1-8.064 8z"  horiz-adv-x="1024" />

    
    <glyph glyph-name="import" unicode="&#58930;" d="M1013.76 56.832h-71.68a10.325333 10.325333 0 0 1-10.325333-10.24v-82.432h-839.68V803.84h839.765333v-82.346667c0-5.632 4.693333-10.24 10.24-10.24h71.765333a10.24 10.24 0 0 1 10.24 10.24V855.04a40.874667 40.874667 0 0 1-40.96 40.96H40.96A40.874667 40.874667 0 0 1 0 855.04v-942.08c0-22.698667 18.261333-40.96 40.96-40.96h942.08c22.698667 0 40.96 18.261333 40.96 40.96V46.506667a10.24 10.24 0 0 1-10.24 10.24z m18.261333 375.125333H613.376V533.333333a10.666667 10.666667 0 0 1-17.408 8.362667l-189.184-149.333333a10.666667 10.666667 0 0 1 0-16.725334l189.184-149.333333a10.666667 10.666667 0 0 1 17.408 8.362667V336.042667h418.645333a10.666667 10.666667 0 0 1 10.666667 10.666666v74.666667a10.666667 10.666667 0 0 1-10.666667 10.666667z"  horiz-adv-x="1109" />

    
    <glyph glyph-name="add" unicode="&#58890;" d="M722.285714 420.571429H548.571429V594.285714A9.142857 9.142857 0 0 1 539.428571 603.428571h-54.857142a9.142857 9.142857 0 0 1-9.142858-9.142857V420.571429H301.714286A9.142857 9.142857 0 0 1 292.571429 411.428571v-54.857142c0-5.046857 4.096-9.142857 9.142857-9.142858H475.428571v-173.714285c0-5.046857 4.096-9.142857 9.142858-9.142857h54.857142a9.142857 9.142857 0 0 1 9.142858 9.142857V347.428571h173.714285A9.142857 9.142857 0 0 1 731.428571 356.571429v54.857142a9.142857 9.142857 0 0 1-9.142857 9.142858zM512 896a512 512 0 1 1 0-1024A512 512 0 0 1 512 896z m0-937.179429A425.179429 425.179429 0 0 0 512 809.179429a425.179429 425.179429 0 0 0 0-850.358858z"  horiz-adv-x="1024" />

    
    <glyph glyph-name="batchDelete" unicode="&#58891;" d="M903.533714 639.268571L657.627429 885.321143A36.571429 36.571429 0 0 1 631.734857 896H146.285714a36.571429 36.571429 0 0 1-36.571428-36.571429v-950.857142a36.571429 36.571429 0 0 1 36.571428-36.571429h731.428572a36.571429 36.571429 0 0 1 36.571428 36.571429V613.376a36.790857 36.790857 0 0 1-10.752 25.965714z m-73.581714-42.715428h-215.04v215.04l215.04-215.04z m2.048-642.267429h-640V813.714286h345.161143V566.857143c0-26.477714 21.430857-47.981714 47.981714-47.981714h246.857143v-564.589715z m-317.586286 351.817143l-70.656 117.028572a13.824 13.824 0 0 1-11.702857 6.729142h-43.885714c-2.706286 0-5.193143-0.731429-7.314286-2.194285a13.677714 13.677714 0 0 1-4.315428-19.017143L470.601143 259.657143l-95.305143-151.771429a13.750857 13.750857 0 0 1 11.702857-20.992h39.424a13.750857 13.750857 0 0 1 11.702857 6.509715l71.606857 116.004571 71.168-115.931429c2.56-4.096 6.948571-6.509714 11.702858-6.509714h42.788571a13.677714 13.677714 0 0 1 11.556571 21.211429L550.985143 257.097143l97.499428 151.405714a13.750857 13.750857 0 0 1-11.556571 21.211429l-40.813714-0.073143a13.824 13.824 0 0 1-11.702857-6.582857l-69.997715-117.028572z"  horiz-adv-x="1024" />

    
    <glyph glyph-name="backward" unicode="&#58892;" d="M1014.0672 406.4256L554.2912 803.328C536.9856 818.176 512 804.864 512 781.0048v-794.112c0-23.8592 25.088-37.1712 42.1888-22.4256l459.8784 397.1072a30.208 30.208 0 0 1 0 44.8512z m-512 0L42.2912 803.328C25.088 818.176 0 804.864 0 781.0048v-794.112c0-23.8592 25.088-37.1712 42.2912-22.4256l459.776 397.1072A29.696 29.696 0 0 1 512 384a29.696 29.696 0 0 1-9.9328 22.4256z"  horiz-adv-x="1024" />

    
    <glyph glyph-name="batchRemove" unicode="&#58893;" d="M786.285714 694.857143h-694.857143a36.571429 36.571429 0 0 1-36.571428-36.571429v-694.857143a36.571429 36.571429 0 0 1 36.571428-36.571428h694.857143a36.571429 36.571429 0 0 1 36.571429 36.571428v694.857143a36.571429 36.571429 0 0 1-36.571429 36.571429z m-45.714285-685.714286h-603.428572v603.428572h603.428572v-603.428572zM932.571429 841.142857H228.571429A9.142857 9.142857 0 0 1 219.428571 832v-64c0-5.046857 4.096-9.142857 9.142858-9.142857h658.285714v-658.285714c0-5.046857 4.096-9.142857 9.142857-9.142858h64a9.142857 9.142857 0 0 1 9.142857 9.142858V804.571429a36.571429 36.571429 0 0 1-36.571428 36.571428zM269.677714 340.553143h338.358857v-73.142857H269.604571v73.142857z"  horiz-adv-x="1024" />

    
    <glyph glyph-name="batchImport" unicode="&#58894;" d="M903.533714 639.268571L657.627429 885.321143A36.571429 36.571429 0 0 1 631.734857 896H146.285714a36.571429 36.571429 0 0 1-36.571428-36.571429v-950.857142a36.571429 36.571429 0 0 1 36.571428-36.571429h731.428572a36.571429 36.571429 0 0 1 36.571428 36.571429V613.376a36.790857 36.790857 0 0 1-10.752 25.965714z m-73.581714-42.715428h-215.04v215.04l215.04-215.04z m2.048-642.267429h-640V813.714286h345.161143V566.857143c0-26.477714 21.430857-47.981714 47.981714-47.981714h246.857143v-564.589715zM548.571429 429.714286a9.142857 9.142857 0 0 1-9.142858 9.142857h-54.857142a9.142857 9.142857 0 0 1-9.142858-9.142857v-123.465143H351.963429a9.142857 9.142857 0 0 1-9.069715-9.069714v-54.857143c0-5.12 4.096-9.216 9.069715-9.216H475.428571v-123.392c0-5.046857 4.096-9.142857 9.142858-9.142857h54.857142a9.142857 9.142857 0 0 1 9.142858 9.142857V233.179429h123.465142a9.142857 9.142857 0 0 1 9.069715 9.069714v54.857143a9.142857 9.142857 0 0 1-9.069715 9.216H548.571429V429.714286z"  horiz-adv-x="1024" />

    
    <glyph glyph-name="batchReport" unicode="&#58895;" d="M470.893714 513.024a8.045714 8.045714 0 0 1-8.045714 8.118857h-47.981714c-4.388571 0-8.045714-3.657143-8.045715-8.045714v-97.060572h-96.548571c-4.681143 0-8.557714-3.584-8.557714-8.045714v-47.981714c0-4.388571 3.876571-8.045714 8.557714-8.045714h96.548571v-96.987429c0-4.461714 3.657143-8.118857 8.045715-8.118857h47.981714c4.461714 0 8.045714 3.657143 8.045714 8.045714V352.109714h96.548572c4.681143 0 8.557714 3.657143 8.557714 7.972572v47.981714c0 4.461714-3.876571 8.045714-8.557714 8.045714h-96.548572V513.024zM567.442286 164.571429H310.272c-4.681143 0-8.557714-3.657143-8.557714-8.045715v-47.981714c0-4.315429 3.876571-7.972571 8.557714-7.972571h257.170286c4.681143 0 8.557714 3.657143 8.557714 8.045714v47.981714c0 4.315429-3.876571 7.972571-8.557714 7.972572z m-8.118857 574.390857A36.571429 36.571429 0 0 1 533.504 749.714286H146.285714a36.571429 36.571429 0 0 1-36.571428-36.571429v-804.571428a36.571429 36.571429 0 0 1 36.571428-36.571429h585.142857a36.571429 36.571429 0 0 1 36.571429 36.571429V515.072a36.571429 36.571429 0 0 1-10.752 25.819429L559.323429 738.962286z m126.390857-784.676572h-493.714286v713.142857h322.56l171.154286-171.154285v-541.988572z m217.380571 664.429715L625.517714 885.833143A36.790857 36.790857 0 0 1 600.137143 896h-334.994286A9.142857 9.142857 0 0 1 256 886.857143V822.857143c0-5.046857 4.096-9.142857 9.142857-9.142857h316.562286l250.294857-240.64v-545.645715c0-5.046857 4.096-9.142857 9.142857-9.142857h64a9.142857 9.142857 0 0 1 9.142857 9.142857V592.457143a36.205714 36.205714 0 0 1-11.190857 26.331428z"  horiz-adv-x="1024" />

    
    <glyph glyph-name="batchRelease" unicode="&#58896;" d="M877.714286 896H265.142857A9.142857 9.142857 0 0 1 256 886.857143V822.857143c0-5.046857 4.096-9.142857 9.142857-9.142857h566.857143v-786.285715c0-5.046857 4.096-9.142857 9.142857-9.142857h64a9.142857 9.142857 0 0 1 9.142857 9.142857V859.428571A36.571429 36.571429 0 0 1 877.714286 896zM731.428571 749.714286H146.285714a36.571429 36.571429 0 0 1-36.571428-36.571429v-606.500571a36.571429 36.571429 0 0 1 10.752-25.819429l198.070857-198.070857a37.814857 37.814857 0 0 1 8.411428-6.290286v-2.194285h4.827429c4.022857-1.462857 8.192-2.267429 12.580571-2.267429H731.428571a36.571429 36.571429 0 0 1 36.571429 36.571429v804.571428A36.571429 36.571429 0 0 1 731.428571 749.714286zM326.875429-9.362286l-98.450286 98.523429H326.948571v-98.523429z m358.838857-36.352H400.018286v162.304a45.714286 45.714286 0 0 1-45.714286 45.714286H192V667.428571h493.714286v-713.142857z"  horiz-adv-x="1024" />

    
    <glyph glyph-name="batchSend" unicode="&#58897;" d="M877.714286 841.142857H754.249143V886.857143A9.142857 9.142857 0 0 1 745.179429 896h-64.073143a9.142857 9.142857 0 0 1-9.069715-9.142857V841.142857H498.249143V886.857143A9.142857 9.142857 0 0 1 489.179429 896h-64a9.142857 9.142857 0 0 1-9.142858-9.142857V841.142857H292.571429a36.571429 36.571429 0 0 1-36.571429-36.571428v-137.142858H146.285714a36.571429 36.571429 0 0 1-36.571428-36.571428V-91.428571a36.571429 36.571429 0 0 1 36.571428-36.571429h585.142857a36.571429 36.571429 0 0 1 36.571429 36.571429V18.285714H877.714286a36.571429 36.571429 0 0 1 36.571428 36.571429V804.571429a36.571429 36.571429 0 0 1-36.571428 36.571428zM685.714286-45.714286h-493.714286V585.142857h249.124571v-198.875428c0-25.234286 20.48-45.714286 45.714286-45.714286h198.875429v-386.267429z m0 459.410286H514.267429V585.142857h0.219428l171.227429-171.154286v-0.292571z m146.285714-313.124571H768v347.428571l-219.428571 219.428571H338.285714v91.428572h77.750857v-36.571429c0-5.046857 4.096-9.142857 9.142858-9.142857h64a9.142857 9.142857 0 0 1 9.142857 9.142857v36.571429h173.714285v-36.571429c0-5.046857 4.096-9.142857 9.069715-9.142857h64.073143a9.142857 9.142857 0 0 1 9.069714 9.142857v36.571429h77.750857v-658.285714z"  horiz-adv-x="1024" />

    
    <glyph glyph-name="date" unicode="&#58898;" d="M1086.293333 618.666667H108.373333a43.52 43.52 0 0 1-44.373333-42.666667V-42.666667c0-23.637333 19.882667-42.666667 44.373333-42.666666h977.749334a43.52 43.52 0 0 1 44.373333 42.666666V576a43.349333 43.349333 0 0 1-44.202667 42.666667z m-691.626666-608h-234.666667v213.333333h234.666667v-213.333333z m0 298.666666h-234.666667v213.333334h234.666667v-213.333334z m320-298.666666h-234.666667v213.333333h234.666667v-213.333333z m0 298.666666h-234.666667v213.333334h234.666667v-213.333334z m320-298.666666h-234.666667v213.333333h234.666667v-213.333333z m0 298.666666h-234.666667v213.333334h234.666667v-213.333334z m85.333333 544H74.666667A10.666667 10.666667 0 0 1 64 842.666667v-106.666667c0-5.888 4.778667-10.666667 10.666667-10.666667h1045.333333a10.666667 10.666667 0 0 1 10.666667 10.666667V842.666667A10.666667 10.666667 0 0 1 1120 853.333333z"  horiz-adv-x="1194" />

    
    <glyph glyph-name="dataAudit" unicode="&#58899;" d="M265.142857 683.446857a9.142857 9.142857 0 0 1-9.142857-9.142857v-54.857143c0-5.046857 4.096-9.142857 9.142857-9.142857h438.857143a9.142857 9.142857 0 0 1 9.142857 9.142857v54.857143a9.142857 9.142857 0 0 1-9.142857 9.142857h-438.857143zM475.428571 518.875429H265.142857a9.142857 9.142857 0 0 1-9.142857-9.142858v-54.857142c0-5.046857 4.096-9.142857 9.142857-9.142858H475.428571a9.142857 9.142857 0 0 1 9.142858 9.142858v54.857142a9.142857 9.142857 0 0 1-9.142858 9.142858z m-54.857142-523.483429h-256v804.571429H804.571429v-365.714286c0-4.973714 4.096-9.142857 9.142857-9.142857H877.714286a9.142857 9.142857 0 0 1 9.142857 9.142857V845.677714a36.571429 36.571429 0 0 1-36.571429 36.571429h-731.428571a36.571429 36.571429 0 0 1-36.571429-36.571429v-896a36.571429 36.571429 0 0 1 36.571429-36.571428H420.571429a9.142857 9.142857 0 0 1 9.142857 9.216v63.926857a9.142857 9.142857 0 0 1-9.142857 9.216z m502.857142 100.644571h-164.571428v41.764572a128 128 0 1 1-73.142857 0v-41.837714h-164.571429a18.285714 18.285714 0 0 1-18.285714-18.285715v-173.641143c0-10.093714 8.192-18.285714 18.285714-18.285714h402.285714a18.285714 18.285714 0 0 1 18.285715 18.285714v173.641143a18.285714 18.285714 0 0 1-18.285715 18.285715z m-258.267428 164.571429a57.197714 57.197714 0 1 0 114.322286-0.073143 57.197714 57.197714 0 0 0-114.322286 0z m205.677714-304.054857H573.732571v68.608h297.106286v-68.608z"  horiz-adv-x="1024" />

    
    <glyph glyph-name="detail" unicode="&#58929;" d="M903.533714 639.268571L657.627429 885.321143A36.571429 36.571429 0 0 1 631.734857 896H146.285714a36.571429 36.571429 0 0 1-36.571428-36.571429v-950.857142a36.571429 36.571429 0 0 1 36.571428-36.571429h731.428572a36.571429 36.571429 0 0 1 36.571428 36.571429V613.376a36.790857 36.790857 0 0 1-10.752 25.965714z m-73.581714-42.715428h-215.04v215.04l215.04-215.04z m2.048-642.267429h-640V813.714286h345.161143V566.857143c0-26.477714 21.430857-47.981714 47.981714-47.981714h246.857143v-564.589715z m-329.142857 308.589715H292.571429a9.142857 9.142857 0 0 1-9.142858-9.142858v-54.857142c0-5.046857 4.096-9.142857 9.142858-9.142858h210.285714A9.142857 9.142857 0 0 1 512 198.875429v54.857142a9.142857 9.142857 0 0 1-9.142857 9.142858z m-219.428572 146.285714v-54.857143c0-5.046857 4.096-9.142857 9.142858-9.142857h438.857142a9.142857 9.142857 0 0 1 9.142858 9.142857v54.857143A9.142857 9.142857 0 0 1 731.428571 418.304H292.571429a9.142857 9.142857 0 0 1-9.142858-9.142857z"  horiz-adv-x="1024" />

    
    <glyph glyph-name="delete" unicode="&#58931;" d="M709.406393 564.018265a9.13242 9.13242 0 0 1-9.20548 9.13242l-75.251141-0.292238L511.415525 437.552511l-113.388128 135.159818-75.39726 0.365297a9.059361 9.059361 0 0 1-9.13242-9.132421c0-2.191781 0.730594-4.237443 2.191781-5.990867l148.456621-176.876712-148.529681-176.803653a9.13242 9.13242 0 0 1 6.94064-15.050229l75.470319 0.292238L511.415525 324.675799l113.388128-135.159817 75.251142-0.292238a9.059361 9.059361 0 0 1 9.205479 9.13242 9.497717 9.497717 0 0 1-2.191781 5.844749l-148.310502 176.876713 148.52968 176.949771a9.13242 9.13242 0 0 1 2.045662 5.917808zM511.415525 894.83105a511.415525 511.415525 0 1 1 0-1022.83105 511.415525 511.415525 0 0 1 0 1022.83105z m0-936.036529A424.694064 424.694064 0 0 0 511.415525 808.109589a424.694064 424.694064 0 0 0 0-849.315068z"  horiz-adv-x="1024" />

    
    <glyph glyph-name="forward" unicode="&#58932;" d="M469.8112 803.328L9.9328 406.528a30.0032 30.0032 0 0 1 0-44.6464l459.776-397.1072c17.2032-14.7456 42.2912-1.4336 42.2912 22.3232V781.1072C512 804.864 486.912 818.2784 469.8112 803.328z m512 0L521.9328 406.528A29.696 29.696 0 0 1 512 384a29.696 29.696 0 0 1 9.9328-22.4256l459.776-397.1072c17.2032-14.7456 42.2912-1.4336 42.2912 22.4256V781.1072c0 23.6544-25.088 37.1712-42.1888 22.2208z"  horiz-adv-x="1024" />

    
    <glyph glyph-name="query" unicode="&#58933;" d="M966.436571-7.460571L669.622857 289.353143c46.08 59.538286 70.948571 132.388571 70.948572 208.969143a340.845714 340.845714 0 0 1-100.425143 242.395428A340.333714 340.333714 0 0 1 397.677714 841.142857a340.845714 340.845714 0 0 1-242.395428-100.425143A340.114286 340.114286 0 0 1 54.857143 498.322286c0-91.574857 35.84-177.737143 100.425143-242.468572a340.114286 340.114286 0 0 1 242.395428-100.425143 340.114286 340.114286 0 0 1 208.822857 70.875429l296.813715-296.667429c3.657143-3.657143 9.581714-3.657143 13.238857 0l49.810286 49.737143a9.362286 9.362286 0 0 1 0 13.165715z m-387.657142 324.754285a254.610286 254.610286 0 0 0-181.101715-75.044571 254.610286 254.610286 0 0 0-181.028571 75.044571 254.610286 254.610286 0 0 0-74.971429 180.955429c0 68.388571 26.697143 132.754286 74.971429 181.028571a254.610286 254.610286 0 0 0 181.028571 75.044572c68.388571 0 132.754286-26.550857 181.028572-74.971429a254.610286 254.610286 0 0 0 75.044571-181.028571c0-68.388571-26.697143-132.754286-75.044571-181.028572z"  horiz-adv-x="1024" />

    
    <glyph glyph-name="historical-data" unicode="&#58934;" d="M1013.333333 10.666667H96V842.666667A10.666667 10.666667 0 0 1 85.333333 853.333333H10.666667A10.666667 10.666667 0 0 1 0 842.666667v-917.333334c0-5.888 4.778667-10.666667 10.666667-10.666666h1002.666666a10.666667 10.666667 0 0 1 10.666667 10.666666V0a10.666667 10.666667 0 0 1-10.666667 10.666667z m-776.277333 205.653333a10.666667 10.666667 0 0 1 15.104 0l184.32 183.466667L606.72 228.693333a10.666667 10.666667 0 0 1 15.104 0l367.189333 367.018667a10.666667 10.666667 0 0 1 0 15.104l-52.821333 52.821333a10.666667 10.666667 0 0 1-15.018667 0L614.4 357.034667 444.586667 527.957333a10.666667 10.666667 0 0 1-15.104 0L184.32 284.416a10.666667 10.666667 0 0 1 0-15.104l52.650667-52.906667z"  horiz-adv-x="1024" />

    
    <glyph glyph-name="search" unicode="&#58935;" d="M966.436571-7.460571L669.622857 289.353143c46.08 59.538286 70.948571 132.388571 70.948572 208.969143a340.845714 340.845714 0 0 1-100.425143 242.395428A340.333714 340.333714 0 0 1 397.677714 841.142857a340.845714 340.845714 0 0 1-242.395428-100.425143A340.114286 340.114286 0 0 1 54.857143 498.322286c0-91.574857 35.84-177.737143 100.425143-242.468572a340.114286 340.114286 0 0 1 242.395428-100.425143 340.114286 340.114286 0 0 1 208.822857 70.875429l296.813715-296.667429c3.657143-3.657143 9.581714-3.657143 13.238857 0l49.810286 49.737143a9.362286 9.362286 0 0 1 0 13.165715z m-387.657142 324.754285a254.610286 254.610286 0 0 0-181.101715-75.044571 254.610286 254.610286 0 0 0-181.028571 75.044571 254.610286 254.610286 0 0 0-74.971429 180.955429c0 68.388571 26.697143 132.754286 74.971429 181.028571a254.610286 254.610286 0 0 0 181.028571 75.044572c68.388571 0 132.754286-26.550857 181.028572-74.971429a254.610286 254.610286 0 0 0 75.044571-181.028571c0-68.388571-26.697143-132.754286-75.044571-181.028572z"  horiz-adv-x="1024" />

    
    <glyph glyph-name="export" unicode="&#58936;" d="M362.666667 643.072h98.56V192c0-5.888 4.778667-10.666667 10.666666-10.666667h79.957334a10.666667 10.666667 0 0 1 10.666666 10.666667V643.072H661.333333c8.96 0 13.824 10.24 8.362667 17.152L520.362667 849.408a10.666667 10.666667 0 0 1-16.725334 0L354.304 660.48a10.752 10.752 0 0 1 8.362667-17.322667z m637.354666-411.050667h-80.042666a10.666667 10.666667 0 0 1-10.666667-10.666666v-205.397334H114.688V221.44a10.666667 10.666667 0 0 1-10.666667 10.666667H23.893333a10.666667 10.666667 0 0 1-10.666666-10.666667V-42.666667a42.666667 42.666667 0 0 1 42.666666-42.666666h912.042667a42.666667 42.666667 0 0 1 42.666667 42.666666V221.354667a10.666667 10.666667 0 0 1-10.666667 10.666666z"  horiz-adv-x="1024" />

    
    <glyph glyph-name="reappraisal" unicode="&#58937;" d="M221.403429 109.714286a46.226286 46.226286 0 0 1 6.802285 0.585143l192.219429 33.645714a11.190857 11.190857 0 0 1 6.070857 3.218286l484.498286 484.498285c4.388571 4.388571 4.388571 11.702857 0 16.091429L721.042286 837.851429A11.337143 11.337143 0 0 1 712.923429 841.142857a11.337143 11.337143 0 0 1-8.118858-3.291428L220.379429 353.28a11.629714 11.629714 0 0 1-3.218286-6.070857l-33.718857-192.219429a38.765714 38.765714 0 0 1 37.961143-45.348571zM298.422857 309.028571l414.500572 414.427429 83.748571-83.821714L382.171429 225.28l-101.668572-17.993143 17.92 101.741714z m634.148572-295.277714H91.428571a36.571429 36.571429 0 0 1-36.571428-36.571428v-41.179429c0-5.046857 4.096-9.142857 9.142857-9.142857h896a9.142857 9.142857 0 0 1 9.142857 9.142857v41.179429a36.571429 36.571429 0 0 1-36.571428 36.571428z"  horiz-adv-x="1024" />

    
    <glyph glyph-name="selfEvaluation" unicode="&#58939;" d="M1053.528952 626.691564a324.253323 324.253323 0 0 1-172.840914 169.544221 325.430713 325.430713 0 0 1-125.588312 24.960677A327.550016 327.550016 0 0 1 549.448865 748.669212 327.550016 327.550016 0 0 1 343.798004 821.117969a325.430713 325.430713 0 0 1-228.64922-92.935351A316.953502 316.953502 0 0 1 19.623174 501.809686c0-40.816201 8.320226-83.437735 24.882184-126.765702 13.893207-36.10664 33.751859-73.704641 59.104999-111.53812 40.266753-59.968419 95.604102-122.527097 164.206718-186.027687a1835.708657 1835.708657 0 0 1 231.317972-180.533199l29.042297-18.681261a39.403333 39.403333 0 0 1 42.386056 0l29.042297 18.602769a1859.491944 1859.491944 0 0 1 231.317972 180.690184c68.681108 63.422098 124.018458 125.980775 164.206718 185.949194 25.431633 37.833479 45.368778 75.352987 59.104999 111.53812 16.561959 43.327968 24.882184 85.871008 24.882184 126.765702a312.243941 312.243941 0 0 1-25.588618 124.96037zM549.448865-24.797805S112.794003 254.95016 112.794003 501.731193c0 124.96037 103.453372 226.215947 231.004001 226.215947A231.55345 231.55345 0 0 0 549.448865 604.870594a231.55345 231.55345 0 0 0 205.650861 123.076546c127.550629 0 231.004001-101.255577 231.004001-226.215947C986.103727 254.95016 549.448865-24.797805 549.448865-24.797805z"  horiz-adv-x="1098" />

    
    <glyph glyph-name="statis" unicode="&#58940;" d="M1013.333333 10.666667H96V842.666667A10.666667 10.666667 0 0 1 85.333333 853.333333H10.666667A10.666667 10.666667 0 0 1 0 842.666667v-917.333334c0-5.888 4.778667-10.666667 10.666667-10.666666h1002.666666a10.666667 10.666667 0 0 1 10.666667 10.666666V0a10.666667 10.666667 0 0 1-10.666667 10.666667zM213.333333 117.333333h74.666667A10.666667 10.666667 0 0 1 298.666667 128V320a10.666667 10.666667 0 0 1-10.666667 10.666667H213.333333a10.666667 10.666667 0 0 1-10.666666-10.666667V128c0-5.888 4.778667-10.666667 10.666666-10.666667z m202.666667 0h74.666667A10.666667 10.666667 0 0 1 501.333333 128V554.666667a10.666667 10.666667 0 0 1-10.666666 10.666666h-74.666667A10.666667 10.666667 0 0 1 405.333333 554.666667v-426.666667c0-5.888 4.778667-10.666667 10.666667-10.666667z m202.666667 0h74.666666A10.666667 10.666667 0 0 1 704 128V450.645333a10.666667 10.666667 0 0 1-10.666667 10.666667H618.666667a10.666667 10.666667 0 0 1-10.666667-10.666667V128c0-5.888 4.778667-10.666667 10.666667-10.666667z m202.666666 0h74.666667A10.666667 10.666667 0 0 1 906.666667 128V661.333333a10.666667 10.666667 0 0 1-10.666667 10.666667h-74.666667a10.666667 10.666667 0 0 1-10.666666-10.666667V128c0-5.888 4.778667-10.666667 10.666666-10.666667z"  horiz-adv-x="1024" />

    
    <glyph glyph-name="uploadReport" unicode="&#58941;" d="M362.666667 643.072h98.56V192c0-5.888 4.778667-10.666667 10.666666-10.666667h79.957334a10.666667 10.666667 0 0 1 10.666666 10.666667V643.072H661.333333c8.96 0 13.824 10.24 8.362667 17.152L520.362667 849.408a10.666667 10.666667 0 0 1-16.725334 0L354.304 660.48a10.752 10.752 0 0 1 8.362667-17.322667z m637.354666-411.050667h-80.042666a10.666667 10.666667 0 0 1-10.666667-10.666666v-205.397334H114.688V221.44a10.666667 10.666667 0 0 1-10.666667 10.666667H23.893333a10.666667 10.666667 0 0 1-10.666666-10.666667V-42.666667a42.666667 42.666667 0 0 1 42.666666-42.666666h912.042667a42.666667 42.666667 0 0 1 42.666667 42.666666V221.354667a10.666667 10.666667 0 0 1-10.666667 10.666666z"  horiz-adv-x="1024" />

    
    <glyph glyph-name="templateDownload" unicode="&#58942;" d="M301.714286 347.428571H475.428571v-173.714285c0-5.046857 4.096-9.142857 9.142858-9.142857h54.857142a9.142857 9.142857 0 0 1 9.142858 9.142857V347.428571h173.714285A9.142857 9.142857 0 0 1 731.428571 356.571429v54.857142a9.142857 9.142857 0 0 1-9.142857 9.142858H548.571429V594.285714A9.142857 9.142857 0 0 1 539.428571 603.428571h-54.857142a9.142857 9.142857 0 0 1-9.142858-9.142857V420.571429H301.714286A9.142857 9.142857 0 0 1 292.571429 411.428571v-54.857142c0-5.046857 4.096-9.142857 9.142857-9.142858zM932.571429 841.142857H91.428571a36.571429 36.571429 0 0 1-36.571428-36.571428v-841.142858a36.571429 36.571429 0 0 1 36.571428-36.571428h841.142858a36.571429 36.571429 0 0 1 36.571428 36.571428V804.571429a36.571429 36.571429 0 0 1-36.571428 36.571428z m-45.714286-832H137.142857V758.857143h749.714286v-749.714286z"  horiz-adv-x="1024" />

    
    <glyph glyph-name="hour" unicode="&#58943;" d="M1006.884571 498.249143h-292.571428a9.142857 9.142857 0 0 1-9.142857-9.142857v-54.857143c0-4.973714 4.096-9.142857 9.142857-9.142857h292.571428a9.142857 9.142857 0 0 1 9.142858 9.142857v54.857143a9.142857 9.142857 0 0 1-9.142858 9.142857z m-153.161142-155.428572H714.313143a9.142857 9.142857 0 0 1-9.142857-9.142857v-54.857143c0-4.973714 4.096-9.069714 9.142857-9.069714h139.410286a9.142857 9.142857 0 0 1 9.142857 9.069714v54.857143a9.142857 9.142857 0 0 1-9.142857 9.142857zM472.356571 600.649143H422.765714a12.8 12.8 0 0 1-12.8-12.8V304.274286c0-4.096 1.974857-7.899429 5.266286-10.24l170.203429-124.196572c5.705143-4.096 13.677714-2.925714 17.773714 2.779429l29.403428 40.082286v0.146285a12.8 12.8 0 0 1-2.925714 17.846857l-144.749714 104.594286v252.342857a12.653714 12.653714 0 0 1-12.653714 12.873143z m374.272-401.554286h-66.048a18.797714 18.797714 0 0 1-15.872-8.850286 366.884571 366.884571 0 0 0-166.619428-141.750857c-44.909714-18.944-92.598857-28.525714-141.750857-28.525714a362.496 362.496 0 0 0-257.462857 106.642286A362.496 362.496 0 0 0 92.16 384a361.691429 361.691429 0 0 0 106.642286 257.462857 362.496 362.496 0 0 0 257.462857 106.642286A362.496 362.496 0 0 0 713.874286 641.462857c19.456-19.382857 36.352-40.667429 50.907428-63.634286 3.437714-5.485714 9.508571-8.777143 15.872-8.777142h66.048a10.459429 10.459429 0 0 1 9.362286 15.140571 446.902857 446.902857 0 0 1-394.24 246.491429C214.747429 833.828571 9.508571 631.734857 9.142857 384.950857a447.049143 447.049143 0 0 1 447.049143-447.707428 447.049143 447.049143 0 0 1 399.798857 246.564571 10.459429 10.459429 0 0 1-9.362286 15.213714z"  horiz-adv-x="1024" />

    
    <glyph glyph-name="versionConversion" unicode="&#58944;" d="M10.666169 330.693048h84.817375a10.666169 10.666169 0 0 1 10.666169 10.666169V681.823328h704.820442v-96.848813a11.092816 11.092816 0 0 1 17.919163-8.788924l191.137747 149.923671c5.631737 6.741019 4.693114 13.738026 0 17.663175L828.803989 893.610778a11.263474 11.263474 0 0 1-18.175152-8.788923v-96.848814h-715.059964C42.835334 787.973041 0 745.052378 0 692.233509V341.359217c0-5.887725 4.778444-10.666169 10.666169-10.666169z m1002.619878 106.661689h-84.817376a10.666169 10.666169 0 0 1-10.666168-10.666169v-340.464112h-704.820442V183.158599a11.092816 11.092816 0 0 1-17.919164 8.788923l-191.137747-149.92367c-5.631737-6.741019-4.693114-13.738026 0-17.663175l191.137747-149.838341a11.263474 11.263474 0 0 1 18.089823 8.788923v96.848814h715.48661c52.64821 0 95.568873 42.920664 95.568874 95.654202V426.688568a11.092816 11.092816 0 0 1-10.922157 10.666169z"  horiz-adv-x="1024" />

    
    <glyph glyph-name="viewSelfAssessmentDetail" unicode="&#58945;" d="M713.142857 612.571429v54.857142A9.142857 9.142857 0 0 1 704 676.571429h-438.857143a9.142857 9.142857 0 0 1-9.142857-9.142858v-54.857142c0-5.046857 4.096-9.142857 9.142857-9.142858h438.857143a9.142857 9.142857 0 0 1 9.142857 9.142858zM265.142857 512a9.142857 9.142857 0 0 1-9.142857-9.142857v-54.857143c0-5.046857 4.096-9.142857 9.142857-9.142857H475.428571a9.142857 9.142857 0 0 1 9.142858 9.142857v54.857143A9.142857 9.142857 0 0 1 475.428571 512H265.142857z m164.571429-516.608H164.571429v804.571429H804.571429v-393.142858c0-4.973714 4.096-9.142857 9.142857-9.142857H877.714286a9.142857 9.142857 0 0 1 9.142857 9.142857v438.857143a36.571429 36.571429 0 0 1-36.571429 36.571429h-731.428571a36.571429 36.571429 0 0 1-36.571429-36.571429v-896a36.571429 36.571429 0 0 1 36.571429-36.571428h310.857143A9.142857 9.142857 0 0 1 438.857143-77.677714v63.926857a9.142857 9.142857 0 0 1-9.142857 9.216z m509.366857-58.806857l-106.642286 106.642286a201.142857 201.142857 0 1 1-49.810286-46.592l108.251429-108.251429a8.923429 8.923429 0 0 1 6.363429-2.706286 9.216 9.216 0 0 1 6.436571 2.633143l35.401143 35.474286a9.069714 9.069714 0 0 1 0 12.8zM671.963429 36.571429a128 128 0 1 0 0 256 128 128 0 1 0 0-256z"  horiz-adv-x="1024" />

    
    <glyph glyph-name="eemp-logo" unicode="&#58912;" d="M221.867 384c0-18.364 6.963-36.693 20.855-50.688l437.726-440.32a70.997 70.997 0 0 1 100.796 0 72.021 72.021 0 0 1 0 101.41L393.967 384l387.277 389.598a72.021 72.021 0 0 1 0 101.376 70.997 70.997 0 0 1-100.796 0l-437.76-440.252c-13.858-14.029-20.821-32.358-20.821-50.722z"  horiz-adv-x="1024" />

    
    <glyph glyph-name="calendar" unicode="&#58915;" d="M254.656 685.952a50.368 50.368 0 0 0-50.304 50.304V836.864a50.368 50.368 0 0 0 100.608 0v-100.608a50.368 50.368 0 0 0-50.304-50.304zM959.168 786.56c27.712 0 50.304-22.592 50.304-50.304v-805.12a50.368 50.368 0 0 0-50.304-50.368H53.376a50.368 50.368 0 0 0-50.304 50.368v805.12c0 27.712 22.528 50.304 50.304 50.304h50.304v-50.304c0-83.2 67.776-150.976 150.976-150.976s150.976 67.776 150.976 150.976V786.56h201.28v-50.304c0-83.2 67.776-150.976 150.976-150.976S908.8 653.056 908.8 736.256V786.56h50.304zM908.8 1.664v462.72a20.16 20.16 0 0 1-20.224 20.288H123.84a20.16 20.16 0 0 1-20.16-20.224v-462.784c0-11.328 9.152-20.224 20.224-20.224H888.64a20.16 20.16 0 0 1 20.224 20.224zM757.76 685.952a50.368 50.368 0 0 0-50.24 50.304V836.864a50.368 50.368 0 0 0 100.608 0v-100.608a50.368 50.368 0 0 0-50.304-50.304zM536.448 384c11.264 0 20.224-8.96 20.224-20.224v-60.416a20.16 20.16 0 0 0-20.224-20.224h-60.416a20.16 20.16 0 0 0-20.224 20.224v60.416c0 11.328 9.088 20.224 20.224 20.224h60.416zM284.8 182.72c11.264 0 20.16-8.96 20.16-20.224v-60.416a20.16 20.16 0 0 0-20.16-20.224h-60.48a20.16 20.16 0 0 0-20.16 20.224v60.416a20.13 20.13 0 0 0 20.16 20.224h60.48z m251.52 0c11.328 0 20.288-8.96 20.288-20.224v-60.416a20.16 20.16 0 0 0-20.224-20.224h-60.416a20.16 20.16 0 0 0-20.224 20.224v60.416c0 11.328 9.088 20.224 20.224 20.224h60.416z m251.648 0c11.136 0 20.224-8.96 20.224-20.224v-60.416a20.16 20.16 0 0 0-20.224-20.224h-60.416a20.16 20.16 0 0 0-20.224 20.224v60.416c0 11.328 9.152 20.224 20.224 20.224h60.416z m0 201.28c11.328 0 20.224-8.96 20.224-20.224v-60.416a20.16 20.16 0 0 0-20.224-20.224h-60.416a20.16 20.16 0 0 0-20.224 20.224v60.416c0 11.328 9.152 20.224 20.224 20.224h60.416z"  horiz-adv-x="1024" />

    
    <glyph glyph-name="optionedico" unicode="&#58916;" d="M902.887818 334.043275c2.119997 16.383979 3.656995 33.060957 3.656996 49.956935s-1.535998 33.499956-3.656996 49.955935l111.249855 84.699889a25.087967 25.087967 0 0 1 6.362992 32.767957l-105.324863 177.369768c-6.582991 11.044986-20.187974 15.65298-32.036958 11.044985l-131.071828-51.491932a402.065474 402.065474 0 0 1-88.867884 50.467934l-19.748974 135.679822A26.842965 26.842965 0 0 1 617.119192 895.99954H406.687468a26.330966 26.330966 0 0 1-26.037966-21.503972L360.899528 738.814746a392.044487 392.044487 0 0 1-88.941884-50.467934l-130.924829 51.491932a26.696965 26.696965 0 0 1-32.182957-10.969985L3.524995 551.349991c-6.581991-10.971986-3.656995-24.868967 6.363992-32.767957l111.029855-84.699889c-2.193997-16.383979-3.656995-33.059957-3.656995-49.955935s1.462998-33.499956 3.657995-49.956935L9.888987 249.417386a25.087967 25.087967 0 0 1-6.363992-32.767957l105.325863-177.369768c6.582991-11.044986 20.186974-15.65298 32.036958-11.044985l131.070828 51.491932c27.062965-20.259973 56.831926-37.375951 88.868884-50.467934l19.747974-135.679822A26.330966 26.330966 0 0 1 406.687468-127.99912h210.504724a26.330966 26.330966 0 0 1 26.038966 21.503972l19.748974 135.679822a392.044487 392.044487 0 0 1 88.940884 50.467934l130.998829-51.491932c11.848984-4.389994 25.599967 0 32.182958 10.969985l105.178862 177.444768c6.582991 10.971986 3.656995 24.868967-6.289992 32.767957l-111.030855 84.699889zM511.86733 204.800444c-101.814867 0-184.173759 80.164895-184.173759 179.199766s82.358892 179.199766 184.173759 179.199766S696.039089 483.03508 696.039089 384.00021s-82.358892-179.199766-184.172759-179.199766z"  horiz-adv-x="1024" />

    
    <glyph glyph-name="look" unicode="&#58917;" d="M757.394-75.776c-257.828 0-539.72 161.938-678.912 447.415-11.995 24.356-11.995 45.348 0 67.876C221.111 730.258 494.446 881.737 772.827 881.737c269.898 1.756 546.524-205.385 663.406-445.66 8.558-17.407 6.876-45.275-1.755-62.683-116.81-252.416-424.448-449.097-677.084-449.097z m312.76 480.549c0 177.517-137.51 318.537-312.76 318.537-175.323 0-314.514-139.264-314.514-316.855s137.509-318.537 312.759-318.537c175.323 0 314.514 139.264 314.514 316.781zM753.956 214.967A188.343 188.343 0 0 0 568.32 408.21c1.682 106.204 89.38 191.488 194.194 187.977a190.61 190.61 0 0 0 183.881-194.925c-3.437-106.204-89.38-189.806-192.438-186.295z"  horiz-adv-x="1462" />

    
    <glyph glyph-name="selectkdarrow" unicode="&#58918;" d="M704-128L0 896h1408z"  horiz-adv-x="1408" />

    
    <glyph glyph-name="searchico" unicode="&#58919;" d="M235.153 661.054a256.212 256.212 0 0 1 0-361.91l45.209 45.209a192.179 192.179 0 0 0 0 271.492l-45.21 45.209zM415.91 896A416.413 416.413 0 0 1 0.049 480.06a416.413 416.413 0 0 1 415.94-416.02 416.413 416.413 0 0 1 416.02 416.02A416.413 416.413 0 0 1 415.91 896z m0-767.927A352.38 352.38 0 0 0 64.082 480.06 352.38 352.38 0 0 0 415.911 831.967a352.38 352.38 0 0 0 352.065-351.829 352.38 352.38 0 0 0-351.987-352.065z m579.843-227.857a95.695 95.695 0 0 0-135.706 0L681.653 73.098l44.5 45.918 178.79-173.276a31.977 31.977 0 1 1 45.602 44.894L777.033 169.896l45.918 44.579 173.276-178.79c17.721-17.72 27.724-41.822 27.724-67.498 0-25.676-10.003-49.777-28.118-67.893z"  horiz-adv-x="1024" />

    
    <glyph glyph-name="shexiangji" unicode="&#58920;" d="M1593.651 726.323c19.354 20.685 48.896 27.187 74.701 16.384 25.805-10.752 42.65-36.659 42.65-65.433v-586.855a70.656 70.656 0 0 0-41.984-65.229 66.611 66.611 0 0 0-74.394 15.156l-156.672 160.972v-117.452c0-116.992-91.648-211.866-204.8-211.866H204.8C91.648-128 0-33.126 0 83.866V684.134C0 801.126 91.648 896 204.8 896h1028.352c113.152 0 204.8-94.874 204.8-211.866v-124.518l155.7 166.758zM358.4 640a102.4 102.4 0 1 1-204.8 0 102.4 102.4 0 0 1 204.8 0z"  horiz-adv-x="1740" />

    
    <glyph glyph-name="search-xiajiantou" unicode="&#58921;" d="M397.456 844.865L971.994 188.25l574.393 656.615 297.22 23.243L971.994-128 100.38 868.108z"  horiz-adv-x="1888" />

    
    <glyph glyph-name="sousuoico" unicode="&#58922;" d="M404.19 896a404.19 404.19 0 1 1 0-808.379A404.19 404.19 0 0 1 404.19 896z m0-728.565a324.753 324.753 0 0 0-324.376 324.43c0 178.813 145.508 324.321 324.375 324.321s324.376-145.508 324.376-324.375-145.508-324.376-324.376-324.376z m606.93-221.065a43.383 43.383 0 0 0 0-61.544 43.706 43.706 0 0 0-61.814 0L754.487 78.783a530.566 530.566 0 0 1 60.628 62.73L1011.12-53.63z"  horiz-adv-x="1024" />

    
    <glyph glyph-name="up-arrowico" unicode="&#58923;" d="M0.00158 767.47a127.706 127.706 0 0 0 211.206 97.008l812.079-696.039 812.18 696.039a127.808 127.808 0 1 0 166.49-194.117L1106.58058-97.103a127.91 127.91 0 0 0-166.488 0L44.71958 670.361A127.501 127.501 0 0 0 0.00058 767.47z"  horiz-adv-x="2048" />

    
    <glyph glyph-name="time" unicode="&#58924;" d="M512-128a512 512 0 1 0 512 512 512.585 512.585 0 0 0-512-512z m0 921.6A409.6 409.6 0 1 1 921.6 384 410.039 410.039 0 0 1 512 793.6z m192.366-510.464l-204.8 51.2A51.2 51.2 0 0 0 460.8 384V640a51.2 51.2 0 0 0 102.4 0v-215.99l166.034-41.546a51.2 51.2 0 1 0-24.868-99.328z"  horiz-adv-x="1024" />

    
    <glyph glyph-name="tree-stjico" unicode="&#58925;" d="M1104.165 896H86.528C43.154 896 0 862.72 0 819.2v-640h1170.286v640c0 43.52-25.454 76.8-66.121 76.8zM0 102.4c0-43.52 43.227-76.8 86.528-76.8h473.234v-102.4H315.465c-15.287 0-25.454-10.24-25.454-25.6 0-15.36 10.24-25.6 25.454-25.6h559.69c15.286 0 25.453 10.24 25.453 25.6 0 15.36-10.24 25.6-25.454 25.6H610.597V25.6h493.568c43.227 0 66.12 33.28 66.12 76.8V128H0v-25.6z"  horiz-adv-x="1170" />

    
    <glyph glyph-name="quanping" unicode="&#58926;" d="M99.104 796.847h214.765a49.557 49.557 0 1 1 0 99.063H49.598A49.557 49.557 0 0 1 0.04 846.353v-264.22a49.557 49.557 0 1 1 99.064 0V796.847z m825.783 0v-214.765a49.557 49.557 0 0 1 99.063 0V846.352A49.557 49.557 0 0 1 974.393 895.91h-264.22a49.557 49.557 0 0 1 0-99.063h214.714zM99.104-28.937V185.828a49.557 49.557 0 0 1-99.064 0v-264.22c0-27.338 22.22-49.557 49.558-49.557h264.22a49.557 49.557 0 1 1 0 99.063H99.104z m825.783 0H710.122a49.557 49.557 0 0 1 0-99.063h264.22a49.557 49.557 0 0 1 49.557 49.557v264.22a49.557 49.557 0 1 1-99.063 0v-214.714zM13.351 812.41l231.762-231.762a49.66 49.66 0 0 1 70.19 70.138L83.54 882.599A49.66 49.66 0 0 1 13.402 812.41z m927.15 70.138L708.74 650.838a49.66 49.66 0 0 1 70.138-70.19L1010.69 812.41a49.66 49.66 0 0 1-70.19 70.138zM83.49-114.69l231.762 231.762a49.66 49.66 0 0 1-70.138 70.189L13.351-44.5a49.66 49.66 0 0 1 70.19-70.138z m927.1 70.189L778.825 187.262a49.66 49.66 0 0 1-70.189-70.138L940.4-114.689a49.66 49.66 0 0 1 70.138 70.189z"  horiz-adv-x="1024" />

    
    <glyph glyph-name="wornico" unicode="&#58927;" d="M511.948 896C229.273 896 0 666.778 0 383.898c0-75.264 16.23-146.841 45.466-211.2l80.895 38.605a419.993 419.993 0 0 0-36.71 172.544A422.4 422.4 0 1 0 511.948-38.45a419.942 419.942 0 0 0-240.384 75.06l-55.808-62.362a4.454 4.454 0 0 0 2.714-3.943c0-1.638 0.307-3.481-1.331-4.25a505.138 505.138 0 0 1 294.911-94.053c282.675 0 511.948 229.222 511.948 512.101S794.623 896 511.948 896zM512 691.2c28.21 0 51.2-22.118 51.2-49.561v-333.875c0-27.34-22.836-49.561-51.2-49.561-28.212 0-51.2 22.118-51.2 49.561V641.536c0 27.444 22.988 49.664 51.2 49.664z m0-515.225c28.21 0 51.2-22.17 51.2-49.612 0-27.29-22.836-49.562-51.2-49.562-28.212 0-51.2 22.119-51.2 49.562 0 27.34 22.988 49.612 51.2 49.612z"  horiz-adv-x="1024" />

    
    <glyph glyph-name="upfile" unicode="&#58928;" d="M512.03107-127.99615c-136.752485 0-265.313 53.214799-362.030635 149.866435A508.693082 508.693082 0 0 0 0.002 384.03292c0 136.785484 53.279799 265.412 149.965435 362.096635A508.726082 508.726082 0 0 0 511.99807 895.99599c136.752485 0 265.313-53.214799 361.964636-149.866435a508.428083 508.428083 0 0 0 150.031434-362.063635 508.329084 508.329084 0 0 0-150.031434-362.129635 508.495083 508.495083 0 0 0-361.931636-149.932435z m0 957.928389c-119.179551 0-231.224128-46.409825-315.422811-130.674507A443.05833 443.05833 0 0 1 66.065751 383.99992c0-119.079551 46.343825-231.059129 130.509508-315.224812A442.95833 442.95833 0 0 1 511.99807-61.932399c119.146551 0 231.224128 46.409825 315.422811 130.674507A442.95833 442.95833 0 0 1 957.930389 383.99992c0 119.079551-46.343825 231.026129-130.509508 315.191812A442.89333 442.89333 0 0 1 511.99807 829.931239z m276.609957-392.255521a37.16086 37.16086 0 1 0 0-74.32172H565.674868v-222.96616a37.16086 37.16086 0 1 0-74.32172 0V363.354998H268.386988a37.16086 37.16086 0 0 0 0 74.32172h222.96616V660.642877a37.16086 37.16086 0 0 0 74.32172 0v-222.966159h222.966159z"  horiz-adv-x="1024" />

    
    <glyph glyph-name="arrow-left" unicode="&#58900;" d="M221.867 384c0-18.364 6.963-36.693 20.855-50.688l437.726-440.32a70.997 70.997 0 0 1 100.796 0 72.021 72.021 0 0 1 0 101.41L393.967 384l387.277 389.598a72.021 72.021 0 0 1 0 101.376 70.997 70.997 0 0 1-100.796 0l-437.76-440.252c-13.858-14.029-20.821-32.358-20.821-50.722z"  horiz-adv-x="1024" />

    
    <glyph glyph-name="addico" unicode="&#58901;" d="M438.87 457.13H73.642a73.216 73.216 0 0 1 0-146.26h365.226v-365.227a73.216 73.216 0 0 1 146.262 0V310.869h365.226a73.216 73.216 0 0 1 0 146.262H585.131V822.357a73.216 73.216 0 0 1-146.262 0v-365.226z"  horiz-adv-x="1024" />

    
    <glyph glyph-name="backico" unicode="&#58902;" d="M494.182 648.26V776.738a57.344 57.344 0 0 1-96.392 41.848L77.21 519.236a57.344 57.344 0 0 1 0-80.827l317.713-297.643a57.344 57.344 0 0 1 96.392 41.847v149.64C929.997 348.912 1122.1-104.174 1122.1-79.53c1.98 471.04-207.394 713.66-627.917 727.791z"  horiz-adv-x="1160" />

    
    <glyph glyph-name="arrow-right" unicode="&#58903;" d="M802.133 384c0-18.364-6.963-36.693-20.855-50.688l-437.726-440.32a70.997 70.997 0 0 0-100.796 0 72.021 72.021 0 0 0 0 101.41L630.033 384 242.756 773.598a72.021 72.021 0 0 0 0 101.376 70.997 70.997 0 0 0 100.796 0l437.76-440.252c13.892-13.995 20.855-32.324 20.855-50.688z"  horiz-adv-x="1024" />

    
    <glyph glyph-name="delect" unicode="&#58904;" d="M141.184 632.064h720L813.44-40.128A51.456 51.456 0 0 0 761.984-88H240.448a51.456 51.456 0 0 0-51.456 47.872l-47.808 672.192z m290.112-138.88a39.616 39.616 0 0 1-42.24 36.032 39.616 39.616 0 0 1-42.112-36.032v-339.456c1.92-21.44 20.608-37.44 42.176-35.968a39.616 39.616 0 0 1 42.176 35.968V493.184z m205.696 0a39.616 39.616 0 0 1-42.176 36.032 39.616 39.616 0 0 1-42.176-36.032v-339.456c1.92-21.44 20.672-37.44 42.24-35.968a39.616 39.616 0 0 1 42.112 35.968V493.184z m-392.96 241.728V837.824a51.456 51.456 0 0 0 51.456 51.392h411.456c28.416 0 51.456-23.04 51.456-51.392v-102.912h154.24a51.456 51.456 0 0 0 0-102.848H89.792a51.456 51.456 0 0 0 0 102.848h154.304z m77.184 25.728h360V812.16H321.28v-51.456z"  horiz-adv-x="1024" />

    
    <glyph glyph-name="downarrow" unicode="&#58905;" d="M779.52-100.736L23.04 713.6a88.832 88.832 0 0 0 0 116.48 74.24 74.24 0 0 0 108.032 0l703.104-757.12L1534.08 826.752a74.24 74.24 0 0 0 108.032 0 88.832 88.832 0 0 0 0-116.48L888.96-100.608c-32-32.768-79.104-32.768-109.568 0z"  horiz-adv-x="1664" />

    
    <glyph glyph-name="close" unicode="&#58906;" d="M22.032 874.134a62.453 62.453 0 0 1 0-95.113l394.887-394.887-394.887-394.99a67.367 67.367 0 0 1 95.112-95.112l394.888 394.99 394.887-394.99a62.453 62.453 0 0 1 95.113 0 62.453 62.453 0 0 1 0 95.215L607.145 384.032l394.887 394.887a62.453 62.453 0 0 1 0 95.215c-29.384 21.808-73.306 28.974-95.113 0L512.032 479.247 117.144 874.134a62.76 62.76 0 0 1-95.112 0z"  horiz-adv-x="1024" />

    
    <glyph glyph-name="down-arrowico" unicode="&#58907;" d="M2047.656 0.542a127.718 127.718 0 0 0-211.226-97.017L1024.275 599.63 212.017-96.475A127.82 127.82 0 1 0 45.513 97.661L940.972 865.196a127.923 127.923 0 0 0 166.504 0l895.458-767.535c29.576-25.278 44.722-61.096 44.722-97.12z"  horiz-adv-x="2048" />

    
    <glyph glyph-name="down-arrow-selected" unicode="&#58908;" d="M1737.728 846.234L868.966-22.528 0 846.234l868.966 8.806"  horiz-adv-x="1843" />

    
    <glyph glyph-name="liulanshu" unicode="&#58909;" d="M768 588.8a172.8 172.8 0 1 0 0-345.6 172.8 172.8 0 0 0 0 345.6z m0 115.2a288 288 0 1 1 0-576 288 288 0 0 1 0 576zM768 785.067c323.413 0 493.739-197.206 628.65-369.067C1261.74 243.883 1091.414 46.848 768 46.848S274.261 244.053 139.35 416C274.26 588.117 444.586 785.152 768 785.152zM768 896C343.893 896 143.19 598.613 0 416c143.19-182.613 343.893-480 768-480s624.81 297.387 768 480C1392.81 598.613 1192.107 896 768 896z"  horiz-adv-x="1536" />

    
    <glyph glyph-name="rightarrow" unicode="&#58910;" d="M768 384L256-64V832z"  horiz-adv-x="1024" />

    
    <glyph glyph-name="saveico" unicode="&#58911;" d="M341.333 76.8h136.534V-128H341.333V76.8zM1000.585 896C1013.555 896 1024 885.487 1024 872.585v-977.17c0-12.97-10.513-23.415-23.415-23.415H698.368v0.137h0.683V170.598H228.147V-128h-71.543L0 26.556V872.585C0 885.555 10.513 896 23.415 896h977.17zM860.57 380.655V840.02H163.43v-459.298h697.14z"  horiz-adv-x="1024" />

    
    <glyph glyph-name="peopleico" unicode="&#58913;" d="M565.605536 246.426533c121.5499 0 281.292769 161.227868 281.292769 365.1067S744.396389 896 565.605536 896 279.551771 817.766064 279.551771 611.533233c0-202.495834 164.505865-365.055701 286.053765-365.0557z m556.031544-266.086782c-13.618989 38.399969-29.951975 76.287937-45.823963 93.132924-29.592976 31.231974-199.269837 120.729901-274.277775 159.539869a40.857966 40.857966 0 0 1-54.681955-16.742986l-85.656929-157.593871c-12.08299-22.271982-45.721962-16.127987-49.15196 8.908993a26.059979 26.059979 0 0 0 2.764998 15.615987l18.943984 35.94197a25.957979 25.957979 0 0 1-3.174997 28.927977l-36.249971 42.700965a40.857966 40.857966 0 0 1-62.360948 0l-36.146971-42.699965a26.009979 26.009979 0 0 1-3.174997-28.928977L511.58958 83.200667c2.559998-4.761996 3.481997-10.239992 2.764998-15.615987-3.429997-25.087979-37.06897-31.129974-49.15196-8.908993L379.493689 216.320558a40.857966 40.857966 0 0 1-54.629955 16.690986C249.855795 194.253576 80.127934 104.704649 50.585959 73.472675 34.713972 56.678689 18.329985 18.79072 4.761996-19.609249a81.253933 81.253933 0 0 1 76.799937-108.389911h963.17321a81.202933 81.202933 0 0 1 76.901937 108.339911z"  horiz-adv-x="1126" />

    
    <glyph glyph-name="uparrow" unicode="&#58914;" d="M779.52 868.736L23.04 54.4a88.832 88.832 0 0 1 0-116.48 74.24 74.24 0 0 1 108.032 0l703.104 757.12 699.904-753.792a74.24 74.24 0 0 1 108.032 0 88.832 88.832 0 0 1 0 116.48L888.96 868.608c-32 32.768-79.104 32.768-109.568 0z"  horiz-adv-x="1664" />

    


  </font>
</defs>
</svg>
